<svg version="1.1" viewBox="0.0 0.0 960.0 960.0" fill="none" stroke="none" stroke-linecap="square" stroke-miterlimit="10" xmlns:xlink="http://www.w3.org/1999/xlink" xmlns="http://www.w3.org/2000/svg"><clipPath id="p.0"><path d="m0 0l960.0 0l0 960.0l-960.0 0l0 -960.0z" clip-rule="nonzero"/></clipPath><g clip-path="url(#p.0)"><path fill="#000000" fill-opacity="0.0" d="m0 0l960.0 0l0 960.0l-960.0 0z" fill-rule="evenodd"/><path fill="#000000" fill-opacity="0.0" d="m44.101166 -376.01758l701.5436 0l0 1520.005l-701.5436 0z" fill-rule="evenodd"/><path fill="#f49645" d="m216.75742 718.0774l-103.8125 129.5625q24.015625 12.859375 55.34375 24.4375q31.3125 11.59375 68.203125 19.3125q36.890625 7.71875 76.359375 7.71875q46.328125 0 89.21875 -9.015625q42.90625 -9.0 76.359375 -28.734375q33.46875 -19.734375 53.18753 -52.765625q19.734375 -33.03125 19.734375 -81.078125l0 -643.4531l-210.18753 0l0 596.2656q0 36.046875 -17.171875 50.203125q-17.15625 14.15625 -36.890625 14.15625q-16.296875 0 -35.59375 -8.59375q-19.3125 -8.578125 -34.75 -18.015625z" fill-rule="nonzero"/><path fill="#000000" fill-opacity="0.0" d="m343.75122 170.9244l572.1478 0" fill-rule="evenodd"/><path stroke="#f49645" stroke-width="197.99475065616798" stroke-linejoin="round" stroke-linecap="butt" d="m343.75122 170.9244l572.1478 0" fill-rule="evenodd"/><path fill="#000000" fill-opacity="0.0" d="m343.75122 415.8141l343.7564 0" fill-rule="evenodd"/><path stroke="#f49645" stroke-width="197.99475065616798" stroke-linejoin="round" stroke-linecap="butt" d="m343.75122 415.8141l343.7564 0" fill-rule="evenodd"/></g></svg>